<?xml version="1.0" encoding="UTF-8"?>
<svg xmlns="http://www.w3.org/2000/svg" viewBox="0 0 240 60">
  <!-- Substrate Logo - Simplified version for dark backgrounds -->
  
  <!-- Main S shape with connecting nodes -->
  <g fill="none" stroke="#FFFFFF" stroke-width="2.5" opacity="0.9">
    <!-- Main S curve -->
    <path d="M60,45 C45,45 35,35 35,25 C35,15 45,5 60,5 L100,5" stroke-linecap="round"/>
    <path d="M60,55 C35,55 25,40 25,25 C25,10 35,0 55,0 L110,0" stroke-linecap="round" opacity="0.5"/>
    <path d="M60,35 C80,35 90,25 90,15 C90,5 80,0 65,0" stroke-linecap="round"/>
    
    <!-- Bottom curve -->
    <path d="M60,55 C75,55 85,45 85,35 C85,25 75,15 60,15 L20,15" stroke-linecap="round"/>
    <path d="M60,45 C85,45 95,30 95,15 C95,0 85,-5 65,-5 L10,-5" stroke-linecap="round" opacity="0.5"/>
    <path d="M60,25 C40,25 30,15 30,5 C30,-5 40,-10 55,-10" stroke-linecap="round"/>
  </g>
  
  <!-- Connection nodes -->
  <g fill="#FFFFFF">
    <circle cx="60" cy="5" r="3"/>
    <circle cx="60" cy="15" r="3"/>
    <circle cx="60" cy="25" r="3"/>
    <circle cx="60" cy="35" r="3"/>
    <circle cx="60" cy="45" r="3"/>
    <circle cx="60" cy="55" r="3"/>
    <circle cx="30" cy="5" r="2" opacity="0.7"/>
    <circle cx="90" cy="15" r="2" opacity="0.7"/>
    <circle cx="20" cy="15" r="2" opacity="0.7"/>
    <circle cx="85" cy="35" r="2" opacity="0.7"/>
  </g>
  
  <!-- Substrate Text -->
  <g fill="#FFFFFF" opacity="0.95">
    <path d="M120,30 h5 c3,0 5,-1 5,-3 c0,-2 -2,-3 -5,-3 h-5 v6 z M120,36 v6 h-3 v-18 h8 c5,0 8,2 8,6 c0,4 -3,6 -8,6 h-5 z"/>
    <path d="M140,42 h-3 v-18 h3 v18 z"/>
    <path d="M150,42 h-3 v-18 h3 v15 h8 v3 h-8 z"/>
    <path d="M165,42 h-3 v-18 h3 v18 z"/>
    <path d="M175,42 h-3 v-18 h3 v15 h8 v3 h-8 z"/>
    <path d="M195,42 h-8 v-18 h8 c6,0 9,4 9,9 c0,5 -3,9 -9,9 z M195,27 h-5 v12 h5 c4,0 6,-3 6,-6 c0,-3 -2,-6 -6,-6 z"/>
    <path d="M215,42 h-8 v-18 h3 v15 h5 v3 z"/>
    <path d="M230,27 h-5 v4 h5 c1,0 2,-1 2,-2 c0,-1 -1,-2 -2,-2 z M225,34 v8 h-3 v-18 h8 c3,0 5,2 5,5 c0,3 -2,5 -5,5 h-5 z"/>
    <path d="M240,42 h-3 v-18 h3 v18 z"/>
  </g>
  
  <!-- Subtle glow effect -->
  <filter id="glow" x="-20%" y="-20%" width="140%" height="140%">
    <feGaussianBlur stdDeviation="1.5" result="blur"/>
    <feComposite in="SourceGraphic" in2="blur" operator="over"/>
  </filter>
</svg>
